PathFileType	4	(X/Y/Z)	Walk8.trc
DataRate	CameraRate	NumFrames	NumMarkers	Units	OrigDataRate	OrigDataStartFrame	OrigNumFrames
200.000000	200.000000	5	69	mm	200.000000	830	868
Frame#	Times		RCAR		LowerBodyModelVer		LMT5		LTB1		LACR1		LTB2		LFHD		LMT1		RUA1		LToe		RFHD		RASI		RElbow		LUA1		STRN		RACR1		RFA1		RTH3		CLAV		RBHD		LTH3		RWRU		LCAR		RTH2		RLFC		LTH1		RTH1		RBack		RTB2		RTB4		LTH2		RTB3		LFA1		LElbow		LWRR		LLFC		C7		RMT1		RTH4		LPSI		RToe		RTB1		LTB4		LWRU		LTH4		LElbowM		LTB3		RPSI		LMMAL		SACR		RLMAL		RMMAL		LBHD		RCAL		RMT5		RWRR		T10		LASI		LCAL		LHJC		MidPelvis		OPelvis		PELOrigin		RHJC		XPelvis		YPelvis		ZPelvis		LLMAL		RElbowM
			X1	Y1	Z1	X2	Y2	Z2	X3	Y3	Z3	X4	Y4	Z4	X5	Y5	Z5	X6	Y6	Z6	X7	Y7	Z7	X8	Y8	Z8	X9	Y9	Z9	X10	Y10	Z10	X11	Y11	Z11	X12	Y12	Z12	X13	Y13	Z13	X14	Y14	Z14	X15	Y15	Z15	X16	Y16	Z16	X17	Y17	Z17	X18	Y18	Z18	X19	Y19	Z19	X20	Y20	Z20	X21	Y21	Z21	X22	Y22	Z22	X23	Y23	Z23	X24	Y24	Z24	X25	Y25	Z25	X26	Y26	Z26	X27	Y27	Z27	X28	Y28	Z28	X29	Y29	Z29	X30	Y30	Z30	X31	Y31	Z31	X32	Y32	Z32	X33	Y33	Z33	X34	Y34	Z34	X35	Y35	Z35	X36	Y36	Z36	X37	Y37	Z37	X38	Y38	Z38	X39	Y39	Z39	X40	Y40	Z40	X41	Y41	Z41	X42	Y42	Z42	X43	Y43	Z43	X44	Y44	Z44	X45	Y45	Z45	X46	Y46	Z46	X47	Y47	Z47	X48	Y48	Z48	X49	Y49	Z49	X50	Y50	Z50	X51	Y51	Z51	X52	Y52	Z52	X53	Y53	Z53	X54	Y54	Z54	X55	Y55	Z55	X56	Y56	Z56	X57	Y57	Z57	X58	Y58	Z58	X59	Y59	Z59	X60	Y60	Z60	X61	Y61	Z61	X62	Y62	Z62	X63	Y63	Z63	X64	Y64	Z64	X65	Y65	Z65	X66	Y66	Z66	X67	Y67	Z67	X68	Y68	Z68	X69	Y69	Z69

830	4.15	1048.4	785.59	255.65	9	2014	4	1092.6	24.823	-99.648	1095.2	336.67	-64.492	1042.4	1378.8	-204.76	1055	254.43	-119.5	1150.9	1598.9	-107.96	1122.5	32.213	-18.133	1023.3	1209	209.25	1191.8	25.214	-43.332	1157.4	1600.5	-13.661	1158.4	989.23	122.08	971.56	1090.8	237.6	1047.7	1198.3	-298	1170.5	1248.7	-37.868	1044.5	1388.3	106.87	972.61	944.25	257.79	1179.8	589.6	161.84	1107.1	1348.8	-49.889	1004	1558.9	17.429	1068.4	603	-179.57	990.46	836.93	264.44	1181.2	809.94	-333.6	1201.7	691.88	172.78	1207.9	512.76	143.17	1076	762.06	-241.11	1116.6	747.46	194.47	918.82	1330.1	63.262	1124.9	302.92	137.13	1149.8	283.1	82.763	1127.2	689.36	-191.48	1095.2	216.89	84.332	1061.1	938.16	-343.22	1024.6	1072.6	-329.78	1154.3	850.89	-292.44	1062.7	481.31	-143.92	967	1422.6	-45.002	1086	59.416	56.913	1147.4	667.29	176.37	920.38	970.24	-73.926	1135.6	39.354	93.8	1204.9	350.97	87.281	1076.8	251.86	-62.269	1109.8	831.03	-348.01	1071.2	684.09	-205.51	989.82	1039.9	-259.84	1061.2	167.72	-63.258	919.49	970.41	15.669	1018.5	67.835	-1.9732	919.94	970.33	-29.129	996.23	143.67	105.26	1024.4	137.9	26.024	996.9	1549.3	-125.72	927.58	140.75	61.748	1080.7	71.049	120.44	1035.5	841.3	210.35	902.87	1153.2	-40.674	1176.3	971.76	-166.29	944.17	33.512	-51.835	1108.9	879.25	-118.36	1043.6	975.41	-25.617	1167.3	980.5	-22.104	1167.3	980.5	-22.104	1096.8	891.14	77.735	1247.1	983.93	-17.381	1164.2	1060.3	-27.133	1162.4	985.33	57.598	1011.2	59.632	-84.771	953.48	1061.5	145.29
831	4.155	1051.7	785.57	255.24	9	2014	4	1092.6	24.802	-99.677	1095.9	336.59	-64.61	1048.3	1378.7	-205.38	1055.5	254.43	-119.6	1156.5	1598.8	-108.46	1122.7	32.102	-18.057	1027.8	1208.9	208.58	1192	25.061	-43.235	1162.9	1600.3	-14.153	1164.3	989.09	120.94	975.54	1090.8	236.66	1054.7	1198.5	-299.09	1175.9	1248.5	-38.1	1049.8	1388.2	106.23	976	944.2	256.76	1187.6	590.4	160.75	1112.6	1348.5	-50.46	1009.5	1558.6	16.69	1070.6	603	-179.72	993.55	836.68	263.15	1193.1	812.5	-334.15	1208.5	692.82	172.59	1216.5	513.88	141.78	1080.3	761.82	-241.6	1122.7	747.46	194.12	924.15	1330	62.221	1138.2	301.21	135.24	1163.6	282.37	80.738	1130.4	688.61	-191.71	1111	214.49	82.104	1071.3	938.84	-344.53	1032.8	1072.8	-331.32	1165.4	852.96	-293.1	1064	481.29	-144.19	972.62	1422.5	-45.881	1106.8	57.534	54.88	1154.4	667.7	175.7	925.54	970.09	-73.848	1157.3	39.527	91.727	1216.6	351.73	85.363	1077.4	251.83	-62.36	1121.4	832.33	-348.83	1074.5	683.93	-205.82	997.68	1039.6	-261.83	1061.5	167.72	-63.322	924.85	970.24	15.791	1018.6	67.895	-1.9389	925.19	970.17	-29.029	1014.2	138.52	103.13	1042.9	133.23	24.004	1002.6	1549.1	-126.46	945.56	133.31	59.573	1101.4	69.501	118.26	1039.4	841.16	209.69	908.38	1153.2	-41.48	1181.1	971.5	-167.41	944.12	33.695	-51.857	1114	879.04	-119.22	1048.9	975.23	-26.133	1172.7	980.29	-23.236	1172.7	980.29	-23.236	1102.5	891	76.858	1252.5	983.72	-18.794	1169.5	1060.1	-28.286	1168	985.16	56.481	1011.3	60.003	-85.028	957.71	1061.6	144.32
832	4.16	1055.1	785.51	254.88	9	2014	4	1092.6	24.782	-99.703	1096.6	336.5	-64.72	1054.3	1378.6	-206	1056.1	254.43	-119.69	1162.2	1598.6	-108.96	1122.9	31.979	-17.986	1032.3	1208.7	207.91	1192.1	24.882	-43.137	1168.5	1600.1	-14.642	1170.2	988.85	119.8	979.52	1090.7	235.72	1061.7	1198.8	-300.16	1181.4	1248.2	-38.366	1055.1	1388	105.61	979.39	944.1	255.72	1195.3	591.14	159.61	1118.1	1348.3	-51.032	1015	1558.2	15.957	1072.8	602.98	-179.88	996.63	836.39	261.84	1204.9	815.03	-334.68	1215.3	693.65	172.35	1224.8	514.89	140.34	1084.6	761.55	-242.11	1128.9	747.42	193.77	929.47	1330	61.192	1151.4	299.47	133.34	1177.3	281.62	78.7	1133.7	687.85	-191.95	1126.8	212.09	79.863	1081.4	939.51	-345.82	1041.1	1073	-332.84	1176.4	855	-293.75	1065.3	481.26	-144.45	978.24	1422.3	-46.745	1127.7	55.741	52.875	1161.4	668.06	175.01	930.69	969.88	-73.729	1178.9	39.839	89.701	1228.2	352.47	83.411	1077.9	251.79	-62.441	1133	833.61	-349.64	1077.8	683.73	-206.14	1005.6	1039.3	-263.81	1061.9	167.72	-63.386	930.21	970	15.958	1018.7	67.953	-1.9416	930.45	969.94	-28.886	1032.3	133.35	100.98	1061.6	128.58	22	1008.3	1548.8	-127.2	963.86	125.85	57.373	1122.1	68.063	116.11	1043.4	840.98	209.08	913.9	1153	-42.25	1185.9	971.17	-168.53	944.07	33.895	-51.873	1118.9	878.76	-120.08	1054.2	974.97	-26.624	1178	980.01	-24.363	1178	980.01	-24.363	1108.2	890.78	75.985	1257.9	983.42	-20.206	1174.9	1059.8	-29.427	1173.7	984.9	55.369	1011.4	60.508	-85.385	961.98	1061.6	143.35
833	4.165	1058.5	785.43	254.58	9	2014	4	1092.6	24.766	-99.726	1097.4	336.4	-64.825	1060.2	1378.4	-206.6	1056.7	254.42	-119.78	1167.8	1598.4	-109.46	1123.2	31.849	-17.921	1036.8	1208.4	207.25	1192.2	24.674	-43.037	1174	1599.8	-15.128	1176	988.52	118.69	983.5	1090.6	234.79	1068.7	1198.9	-301.2	1186.8	1247.8	-38.667	1060.4	1387.7	104.99	982.78	943.96	254.67	1202.9	591.8	158.44	1123.6	1348	-51.604	1020.6	1557.8	15.231	1075.1	602.95	-180.04	999.73	836.04	260.53	1216.7	817.51	-335.21	1222.1	694.37	172.06	1232.9	515.78	138.88	1088.9	761.24	-242.62	1135.1	747.34	193.43	934.8	1329.8	60.18	1164.7	297.71	131.42	1191	280.87	76.653	1136.9	687.08	-192.2	1142.8	209.69	77.614	1091.5	940.16	-347.08	1049.3	1073.1	-334.32	1187.3	857.01	-294.4	1066.7	481.23	-144.71	983.87	1422.1	-47.592	1148.7	54.067	50.915	1168.3	668.36	174.3	935.83	969.61	-73.575	1200.6	40.302	87.733	1239.6	353.19	81.428	1078.5	251.75	-62.515	1144.5	834.88	-350.42	1081.2	683.5	-206.46	1013.5	1039	-265.76	1062.3	167.69	-63.453	935.58	969.7	16.164	1019	68.01	-1.9793	935.7	969.66	-28.705	1050.7	128.2	98.832	1080.4	123.98	20.012	1014.1	1548.5	-127.93	982.49	118.41	55.144	1142.8	66.74	113.99	1047.5	840.76	208.52	919.42	1152.8	-42.986	1190.7	970.76	-169.64	944.01	34.109	-51.882	1123.9	878.41	-120.94	1059.5	974.65	-27.091	1183.4	979.64	-25.476	1183.4	979.64	-25.476	1113.9	890.48	75.123	1263.2	983.04	-21.607	1180.2	1059.4	-30.55	1179.3	984.55	54.269	1011.5	61.175	-85.865	966.28	1061.6	142.39
834	4.17	1061.9	785.32	254.32	9	2014	4	1092.6	24.754	-99.747	1098.3	336.29	-64.929	1066.2	1378.1	-207.2	1057.4	254.4	-119.86	1173.5	1598.1	-109.96	1123.4	31.722	-17.869	1041.3	1208.1	206.6	1192.4	24.44	-42.935	1179.5	1599.5	-15.611	1181.8	988.1	117.59	987.5	1090.5	233.87	1075.7	1199.1	-302.22	1192.3	1247.4	-39.004	1065.8	1387.4	104.38	986.17	943.77	253.61	1210.3	592.37	157.23	1129.2	1347.6	-52.176	1026.1	1557.4	14.512	1077.4	602.9	-180.21	1002.8	835.64	259.2	1228.4	819.95	-335.73	1228.8	694.98	171.72	1240.8	516.54	137.38	1093.1	760.9	-243.15	1141.4	747.24	193.1	940.13	1329.6	59.185	1178	295.95	129.49	1204.7	280.12	74.599	1140.1	686.3	-192.46	1158.8	207.32	75.362	1101.5	940.78	-348.31	1057.6	1073.3	-335.78	1198.2	858.98	-295.04	1068.1	481.19	-144.98	989.49	1421.8	-48.421	1169.8	52.542	49.013	1175.1	668.6	173.56	940.97	969.29	-73.39	1222.2	40.926	85.831	1250.9	353.88	79.418	1079.1	251.7	-62.584	1155.9	836.14	-351.18	1084.5	683.24	-206.79	1021.4	1038.7	-267.68	1062.7	167.66	-63.528	940.95	969.35	16.404	1019.4	68.07	-2.0432	940.96	969.32	-28.493	1069.3	123.1	96.678	1099.4	119.49	18.04	1019.8	1548.1	-128.66	1001.4	111.02	52.885	1163.6	65.539	111.89	1051.6	840.5	208	924.93	1152.6	-43.689	1195.5	970.29	-170.73	943.96	34.335	-51.881	1128.9	877.98	-121.78	1064.8	974.26	-27.532	1188.7	979.2	-26.57	1188.7	979.2	-26.57	1119.6	890.09	74.279	1268.5	982.57	-22.987	1185.5	1059	-31.65	1184.9	984.12	53.188	1011.7	62.032	-86.492	970.61	1061.6	141.43
